<svg xmlns="http://www.w3.org/2000/svg"  viewBox="0 0 48 48" width="48px" height="48px"><path d="M 31.845703 7.0332031 C 31.571975 7.0271225 31.299556 7.046358 31.033203 7.0898438 C 29.435088 7.3507584 28.030508 8.4695888 27.488281 10.091797 C 27.370384 10.444321 27.264005 10.796966 27.175781 11.154297 C 25.826782 11.030712 24.699008 11.007813 24 11.007812 C 23.300992 11.007812 22.173218 11.030712 20.824219 11.154297 C 20.736067 10.797605 20.629411 10.445663 20.511719 10.09375 C 19.969492 8.471542 18.564912 7.3527115 16.966797 7.0917969 C 16.434092 7.0048284 15.87903 7.0144079 15.328125 7.1308594 C 13.118088 7.5982452 9.9617245 8.5051099 7.4726562 10.525391 A 1.5003105 1.5003105 0 1 0 9.3632812 12.855469 C 11.196213 11.367749 13.979256 10.48302 15.949219 10.066406 C 16.697598 9.9082126 17.418985 10.305866 17.666016 11.044922 C 17.730238 11.236954 17.776769 11.414706 17.826172 11.59375 C 15.590745 12.037313 13.096912 12.807641 10.734375 14.210938 A 1.50015 1.50015 0 1 0 12.265625 16.789062 C 16.622816 14.200985 22.007572 14.007813 24 14.007812 C 25.992428 14.007812 31.377184 14.200984 35.734375 16.789062 A 1.50015 1.50015 0 1 0 37.265625 14.210938 C 34.902434 12.807252 32.40777 12.037244 30.171875 11.59375 C 30.221382 11.414209 30.267598 11.23563 30.332031 11.042969 C 30.579062 10.303913 31.300449 9.9062593 32.048828 10.064453 C 34.001247 10.47716 36.740824 11.357442 38.574219 12.820312 C 38.749259 12.995171 39.877113 14.747173 40.802734 17.109375 C 41.735882 19.490784 42.668524 22.581568 43.265625 25.882812 A 1.5004377 1.5004377 0 1 0 46.21875 25.349609 C 45.582851 21.833855 44.601805 18.581263 43.595703 16.013672 C 42.589601 13.446081 41.774945 11.684955 40.603516 10.591797 A 1.50015 1.50015 0 0 0 40.525391 10.523438 C 38.036503 8.5033004 34.881138 7.5963178 32.669922 7.1289062 C 32.394469 7.0706805 32.119432 7.0392837 31.845703 7.0332031 z M 5.7421875 15.050781 A 1.50015 1.50015 0 0 0 4.4003906 16.023438 C 2.7101937 20.339717 1.0742187 26.58791 1.0742188 32.769531 A 1.50015 1.50015 0 0 0 1.2675781 33.505859 C 3.613117 37.667886 8.7053413 39.246064 11.824219 39.875 C 13.544661 40.221791 15.316939 39.515364 16.34375 38.091797 L 17.580078 36.376953 C 19.428026 36.763851 21.567209 37.019531 24 37.019531 C 26.432791 37.019531 28.571974 36.763851 30.419922 36.376953 L 31.654297 38.089844 C 32.680716 39.514931 34.455173 40.219871 36.175781 39.873047 C 39.294659 39.244111 44.38493 37.665933 46.730469 33.503906 A 1.50015 1.50015 0 0 0 45.431641 31.248047 A 1.50015 1.50015 0 0 0 44.117188 32.03125 C 42.596725 34.729223 38.265154 36.390577 35.582031 36.931641 C 35.01064 37.046816 34.443424 36.82685 34.089844 36.335938 L 33.509766 35.533203 C 34.110146 35.329457 34.674845 35.117908 35.177734 34.904297 C 37.691844 33.836383 39.082031 32.671875 39.082031 32.671875 A 1.5004047 1.5004047 0 1 0 37.134766 30.388672 C 37.134766 30.388672 36.18725 31.217945 34.005859 32.144531 C 31.824469 33.071117 28.505584 34.019531 24 34.019531 C 19.494416 34.019531 16.175531 33.071117 13.994141 32.144531 C 11.81275 31.217945 10.865234 30.388672 10.865234 30.388672 A 1.50015 1.50015 0 0 0 9.90625 30.015625 A 1.50015 1.50015 0 0 0 8.9179688 32.671875 C 8.9179688 32.671875 10.308156 33.836383 12.822266 34.904297 C 13.325155 35.117908 13.889854 35.329457 14.490234 35.533203 L 13.910156 36.337891 C 13.554968 36.830323 12.987573 37.050756 12.416016 36.935547 C 9.8361442 36.415304 5.7905527 34.831889 4.1269531 32.314453 C 4.2072824 26.806776 5.6697729 21.012979 7.1953125 17.117188 A 1.50015 1.50015 0 0 0 5.7421875 15.050781 z M 17.535156 22 A 3.465 3.96 0 0 0 17.535156 29.919922 A 3.465 3.96 0 0 0 17.535156 22 z M 30.445312 22 A 3.5 4 0 0 0 30.445312 30 A 3.5 4 0 0 0 30.445312 22 z"/></svg>